<svg width="40" height="20" viewBox="0 0 40 20" fill="none" xmlns="http://www.w3.org/2000/svg">
<path d="M2.48989 0H37.5101C38.9006 0 40 1.13177 40 2.4899V17.4939C40 18.8844 38.8682 19.9838 37.5101 19.9838H2.48989C1.09943 19.9838 0 18.8521 0 17.4939V2.4899C0 1.13177 1.13177 0 2.48989 0Z" fill="#F5C518"/>
<path d="M5.01172 15.6509H8.116V4.36548H5.01172V15.6509Z" fill="black"/>
<path d="M14.8095 4.36548L14.0981 9.6363L13.6777 6.7907C13.5483 5.88529 13.419 5.07688 13.322 4.39781H9.37695V15.6509H12.0285V8.2135L13.1603 15.6509H15.0358L16.1029 8.05182V15.6509H18.7545V4.36548H14.8095Z" fill="black"/>
<path d="M20.0156 15.6509V4.36548H24.8984C25.9978 4.36548 26.9033 5.23856 26.9033 6.33799V13.6137C26.9033 14.7131 25.9978 15.5862 24.8984 15.5862H20.0156V15.6509ZM23.6696 6.40267C23.5403 6.33799 23.3139 6.30566 22.9582 6.30566V13.6783C23.4109 13.6783 23.702 13.5813 23.799 13.4196C23.896 13.258 23.9607 12.8053 23.9607 12.0292V7.69612C23.9607 7.17874 23.9283 6.85537 23.896 6.72603C23.8636 6.56435 23.799 6.46734 23.6696 6.40267Z" fill="black"/>
<path d="M32.6564 6.8456H32.8504C33.9822 6.8456 34.8876 7.71868 34.8876 8.81811V13.3452C34.8876 14.4446 33.9822 15.3177 32.8504 15.3177H32.6564C31.9774 15.3177 31.363 14.9943 31.0073 14.477L30.8133 15.156H28V4H31.0073V7.62167C31.3953 7.13662 31.9774 6.8456 32.6564 6.8456ZM32.0097 12.3104V9.65885C32.0097 9.20615 31.9774 8.91512 31.9127 8.78577C31.848 8.65643 31.6217 8.55942 31.46 8.55942C31.2983 8.55942 31.0396 8.62409 30.9749 8.75344V9.65885V12.4074V13.2805C31.0396 13.4099 31.266 13.4745 31.46 13.4745C31.6217 13.4745 31.8804 13.4099 31.9127 13.2805C32.0097 13.1512 32.0097 12.8278 32.0097 12.3104Z" fill="black"/>
</svg>
